<mxfile host="Electron" agent="Mozilla/5.0 (Windows NT 10.0; Win64; x64) AppleWebKit/537.36 (KHTML, like Gecko) draw.io/26.0.16 Chrome/132.0.6834.196 Electron/34.2.0 Safari/537.36" version="26.0.16">
  <diagram id="R2lEEEUBdFMjLlhIrx00" name="Page-1">
    <mxGraphModel dx="1290" dy="621" grid="1" gridSize="10" guides="1" tooltips="1" connect="1" arrows="1" fold="1" page="1" pageScale="1" pageWidth="850" pageHeight="1100" math="0" shadow="0" extFonts="Permanent Marker^https://fonts.googleapis.com/css?family=Permanent+Marker">
      <root>
        <mxCell id="0" />
        <mxCell id="1" parent="0" />
        <mxCell id="3s1FqCLYZ8FvX9Ai-8oP-2" value="PERSON" style="whiteSpace=wrap;html=1;align=center;" vertex="1" parent="1">
          <mxGeometry x="240" y="120" width="100" height="40" as="geometry" />
        </mxCell>
        <mxCell id="3s1FqCLYZ8FvX9Ai-8oP-4" value="PersonID" style="ellipse;whiteSpace=wrap;html=1;align=center;fontStyle=4;" vertex="1" parent="1">
          <mxGeometry x="260" y="10" width="100" height="40" as="geometry" />
        </mxCell>
        <mxCell id="3s1FqCLYZ8FvX9Ai-8oP-6" value="" style="endArrow=none;html=1;rounded=0;entryX=0.6;entryY=0;entryDx=0;entryDy=0;entryPerimeter=0;" edge="1" parent="1" source="3s1FqCLYZ8FvX9Ai-8oP-4" target="3s1FqCLYZ8FvX9Ai-8oP-2">
          <mxGeometry relative="1" as="geometry">
            <mxPoint x="230" y="120" as="sourcePoint" />
            <mxPoint x="300" y="100" as="targetPoint" />
          </mxGeometry>
        </mxCell>
        <mxCell id="3s1FqCLYZ8FvX9Ai-8oP-7" value="Name" style="ellipse;whiteSpace=wrap;html=1;align=center;" vertex="1" parent="1">
          <mxGeometry x="140" y="10" width="100" height="40" as="geometry" />
        </mxCell>
        <mxCell id="3s1FqCLYZ8FvX9Ai-8oP-8" value="" style="endArrow=none;html=1;rounded=0;entryX=0.25;entryY=0;entryDx=0;entryDy=0;" edge="1" parent="1" source="3s1FqCLYZ8FvX9Ai-8oP-7" target="3s1FqCLYZ8FvX9Ai-8oP-2">
          <mxGeometry relative="1" as="geometry">
            <mxPoint x="300" y="150" as="sourcePoint" />
            <mxPoint x="430" y="120" as="targetPoint" />
          </mxGeometry>
        </mxCell>
        <mxCell id="3s1FqCLYZ8FvX9Ai-8oP-10" value="Address" style="ellipse;whiteSpace=wrap;html=1;align=center;" vertex="1" parent="1">
          <mxGeometry x="50" y="50" width="100" height="40" as="geometry" />
        </mxCell>
        <mxCell id="3s1FqCLYZ8FvX9Ai-8oP-11" value="" style="endArrow=none;html=1;rounded=0;entryX=0;entryY=0;entryDx=0;entryDy=0;exitX=1;exitY=0.5;exitDx=0;exitDy=0;" edge="1" parent="1" source="3s1FqCLYZ8FvX9Ai-8oP-10" target="3s1FqCLYZ8FvX9Ai-8oP-2">
          <mxGeometry relative="1" as="geometry">
            <mxPoint x="265" y="200" as="sourcePoint" />
            <mxPoint x="425" y="200" as="targetPoint" />
          </mxGeometry>
        </mxCell>
        <mxCell id="3s1FqCLYZ8FvX9Ai-8oP-12" value="Phone" style="ellipse;whiteSpace=wrap;html=1;align=center;" vertex="1" parent="1">
          <mxGeometry x="30" y="110" width="100" height="40" as="geometry" />
        </mxCell>
        <mxCell id="3s1FqCLYZ8FvX9Ai-8oP-13" value="" style="endArrow=none;html=1;rounded=0;entryX=0;entryY=0.5;entryDx=0;entryDy=0;" edge="1" parent="1" source="3s1FqCLYZ8FvX9Ai-8oP-12" target="3s1FqCLYZ8FvX9Ai-8oP-2">
          <mxGeometry relative="1" as="geometry">
            <mxPoint x="360" y="300" as="sourcePoint" />
            <mxPoint x="520" y="300" as="targetPoint" />
          </mxGeometry>
        </mxCell>
        <mxCell id="3s1FqCLYZ8FvX9Ai-8oP-14" value="Birth Date" style="ellipse;whiteSpace=wrap;html=1;align=center;" vertex="1" parent="1">
          <mxGeometry x="60" y="180" width="100" height="40" as="geometry" />
        </mxCell>
        <mxCell id="3s1FqCLYZ8FvX9Ai-8oP-15" value="" style="endArrow=none;html=1;rounded=0;entryX=0;entryY=1;entryDx=0;entryDy=0;exitX=0.5;exitY=0;exitDx=0;exitDy=0;" edge="1" parent="1" source="3s1FqCLYZ8FvX9Ai-8oP-14" target="3s1FqCLYZ8FvX9Ai-8oP-2">
          <mxGeometry relative="1" as="geometry">
            <mxPoint x="379.9953390593274" y="235.85786437626916" as="sourcePoint" />
            <mxPoint x="394.64" y="160" as="targetPoint" />
            <Array as="points" />
          </mxGeometry>
        </mxCell>
        <mxCell id="3s1FqCLYZ8FvX9Ai-8oP-16" value="ORGANIZATION" style="whiteSpace=wrap;html=1;align=center;" vertex="1" parent="1">
          <mxGeometry x="510" y="160" width="100" height="40" as="geometry" />
        </mxCell>
        <mxCell id="3s1FqCLYZ8FvX9Ai-8oP-17" value="OrganizationID" style="ellipse;whiteSpace=wrap;html=1;align=center;fontStyle=4;" vertex="1" parent="1">
          <mxGeometry x="530" y="10" width="100" height="40" as="geometry" />
        </mxCell>
        <mxCell id="3s1FqCLYZ8FvX9Ai-8oP-18" value="" style="endArrow=none;html=1;rounded=0;exitX=0.75;exitY=0;exitDx=0;exitDy=0;" edge="1" parent="1" source="3s1FqCLYZ8FvX9Ai-8oP-16" target="3s1FqCLYZ8FvX9Ai-8oP-17">
          <mxGeometry relative="1" as="geometry">
            <mxPoint x="570" y="270" as="sourcePoint" />
            <mxPoint x="666.8181818181818" y="80" as="targetPoint" />
          </mxGeometry>
        </mxCell>
        <mxCell id="3s1FqCLYZ8FvX9Ai-8oP-24" value="Name" style="ellipse;whiteSpace=wrap;html=1;align=center;" vertex="1" parent="1">
          <mxGeometry x="650" y="10" width="100" height="40" as="geometry" />
        </mxCell>
        <mxCell id="3s1FqCLYZ8FvX9Ai-8oP-25" value="" style="endArrow=none;html=1;rounded=0;entryX=0.338;entryY=0.95;entryDx=0;entryDy=0;entryPerimeter=0;exitX=0.878;exitY=0;exitDx=0;exitDy=0;exitPerimeter=0;" edge="1" parent="1" source="3s1FqCLYZ8FvX9Ai-8oP-16" target="3s1FqCLYZ8FvX9Ai-8oP-24">
          <mxGeometry relative="1" as="geometry">
            <mxPoint x="570" y="240" as="sourcePoint" />
            <mxPoint x="730" y="240" as="targetPoint" />
          </mxGeometry>
        </mxCell>
        <mxCell id="3s1FqCLYZ8FvX9Ai-8oP-26" value="Address" style="ellipse;whiteSpace=wrap;html=1;align=center;" vertex="1" parent="1">
          <mxGeometry x="730" y="60" width="100" height="40" as="geometry" />
        </mxCell>
        <mxCell id="3s1FqCLYZ8FvX9Ai-8oP-27" value="" style="endArrow=none;html=1;rounded=0;exitX=1;exitY=0.25;exitDx=0;exitDy=0;entryX=0;entryY=0.5;entryDx=0;entryDy=0;" edge="1" parent="1" source="3s1FqCLYZ8FvX9Ai-8oP-16" target="3s1FqCLYZ8FvX9Ai-8oP-26">
          <mxGeometry relative="1" as="geometry">
            <mxPoint x="610" y="160" as="sourcePoint" />
            <mxPoint x="770" y="160" as="targetPoint" />
          </mxGeometry>
        </mxCell>
        <mxCell id="3s1FqCLYZ8FvX9Ai-8oP-28" value="Phone" style="ellipse;whiteSpace=wrap;html=1;align=center;" vertex="1" parent="1">
          <mxGeometry x="720" y="120" width="100" height="40" as="geometry" />
        </mxCell>
        <mxCell id="3s1FqCLYZ8FvX9Ai-8oP-29" value="" style="endArrow=none;html=1;rounded=0;exitX=1;exitY=0.75;exitDx=0;exitDy=0;entryX=0;entryY=0.5;entryDx=0;entryDy=0;" edge="1" parent="1" source="3s1FqCLYZ8FvX9Ai-8oP-16" target="3s1FqCLYZ8FvX9Ai-8oP-28">
          <mxGeometry relative="1" as="geometry">
            <mxPoint x="490" y="280" as="sourcePoint" />
            <mxPoint x="650" y="280" as="targetPoint" />
          </mxGeometry>
        </mxCell>
        <mxCell id="3s1FqCLYZ8FvX9Ai-8oP-31" value="Budget Number" style="ellipse;whiteSpace=wrap;html=1;align=center;" vertex="1" parent="1">
          <mxGeometry x="710" y="180" width="100" height="40" as="geometry" />
        </mxCell>
        <mxCell id="3s1FqCLYZ8FvX9Ai-8oP-32" value="" style="endArrow=none;html=1;rounded=0;exitX=1;exitY=1;exitDx=0;exitDy=0;entryX=0;entryY=0;entryDx=0;entryDy=0;" edge="1" parent="1" source="3s1FqCLYZ8FvX9Ai-8oP-16" target="3s1FqCLYZ8FvX9Ai-8oP-31">
          <mxGeometry relative="1" as="geometry">
            <mxPoint x="530" y="200" as="sourcePoint" />
            <mxPoint x="690" y="180" as="targetPoint" />
          </mxGeometry>
        </mxCell>
        <mxCell id="3s1FqCLYZ8FvX9Ai-8oP-33" value="Organizational&lt;div&gt;Type&lt;/div&gt;" style="ellipse;whiteSpace=wrap;html=1;align=center;" vertex="1" parent="1">
          <mxGeometry x="690" y="240" width="100" height="40" as="geometry" />
        </mxCell>
        <mxCell id="3s1FqCLYZ8FvX9Ai-8oP-34" value="" style="endArrow=none;html=1;rounded=0;exitX=0.75;exitY=1;exitDx=0;exitDy=0;entryX=0;entryY=0;entryDx=0;entryDy=0;" edge="1" parent="1" source="3s1FqCLYZ8FvX9Ai-8oP-16" target="3s1FqCLYZ8FvX9Ai-8oP-33">
          <mxGeometry relative="1" as="geometry">
            <mxPoint x="480" y="320" as="sourcePoint" />
            <mxPoint x="640" y="320" as="targetPoint" />
          </mxGeometry>
        </mxCell>
        <mxCell id="3s1FqCLYZ8FvX9Ai-8oP-36" value="EMPLOYEMENT" style="whiteSpace=wrap;html=1;align=center;" vertex="1" parent="1">
          <mxGeometry x="200" y="480" width="100" height="40" as="geometry" />
        </mxCell>
        <mxCell id="3s1FqCLYZ8FvX9Ai-8oP-37" value="EmploymentID" style="ellipse;whiteSpace=wrap;html=1;align=center;fontStyle=4;" vertex="1" parent="1">
          <mxGeometry x="50" y="400" width="100" height="40" as="geometry" />
        </mxCell>
        <mxCell id="3s1FqCLYZ8FvX9Ai-8oP-38" value="" style="endArrow=none;html=1;rounded=0;exitX=1;exitY=0.5;exitDx=0;exitDy=0;entryX=0;entryY=0;entryDx=0;entryDy=0;" edge="1" parent="1" source="3s1FqCLYZ8FvX9Ai-8oP-37" target="3s1FqCLYZ8FvX9Ai-8oP-36">
          <mxGeometry relative="1" as="geometry">
            <mxPoint x="140" y="550" as="sourcePoint" />
            <mxPoint x="300" y="550" as="targetPoint" />
          </mxGeometry>
        </mxCell>
        <mxCell id="3s1FqCLYZ8FvX9Ai-8oP-39" value="Employment&lt;div&gt;Date&lt;/div&gt;" style="ellipse;whiteSpace=wrap;html=1;align=center;" vertex="1" parent="1">
          <mxGeometry x="20" y="460" width="100" height="40" as="geometry" />
        </mxCell>
        <mxCell id="3s1FqCLYZ8FvX9Ai-8oP-40" value="" style="endArrow=none;html=1;rounded=0;exitX=1;exitY=0.5;exitDx=0;exitDy=0;entryX=0;entryY=0.25;entryDx=0;entryDy=0;" edge="1" parent="1" source="3s1FqCLYZ8FvX9Ai-8oP-39" target="3s1FqCLYZ8FvX9Ai-8oP-36">
          <mxGeometry relative="1" as="geometry">
            <mxPoint x="160" y="470" as="sourcePoint" />
            <mxPoint x="320" y="470" as="targetPoint" />
          </mxGeometry>
        </mxCell>
        <mxCell id="3s1FqCLYZ8FvX9Ai-8oP-41" value="Termination&lt;div&gt;Date&lt;/div&gt;" style="ellipse;whiteSpace=wrap;html=1;align=center;" vertex="1" parent="1">
          <mxGeometry x="10" y="520" width="100" height="40" as="geometry" />
        </mxCell>
        <mxCell id="3s1FqCLYZ8FvX9Ai-8oP-42" value="" style="endArrow=none;html=1;rounded=0;exitX=1;exitY=0;exitDx=0;exitDy=0;entryX=0;entryY=0.5;entryDx=0;entryDy=0;" edge="1" parent="1" source="3s1FqCLYZ8FvX9Ai-8oP-41" target="3s1FqCLYZ8FvX9Ai-8oP-36">
          <mxGeometry relative="1" as="geometry">
            <mxPoint x="160" y="470" as="sourcePoint" />
            <mxPoint x="320" y="470" as="targetPoint" />
          </mxGeometry>
        </mxCell>
        <mxCell id="3s1FqCLYZ8FvX9Ai-8oP-43" value="Bonus" style="ellipse;whiteSpace=wrap;html=1;align=center;" vertex="1" parent="1">
          <mxGeometry x="20" y="580" width="100" height="40" as="geometry" />
        </mxCell>
        <mxCell id="3s1FqCLYZ8FvX9Ai-8oP-44" value="" style="endArrow=none;html=1;rounded=0;entryX=0;entryY=1;entryDx=0;entryDy=0;" edge="1" parent="1" source="3s1FqCLYZ8FvX9Ai-8oP-43" target="3s1FqCLYZ8FvX9Ai-8oP-36">
          <mxGeometry relative="1" as="geometry">
            <mxPoint x="160" y="470" as="sourcePoint" />
            <mxPoint x="320" y="470" as="targetPoint" />
            <Array as="points" />
          </mxGeometry>
        </mxCell>
        <mxCell id="3s1FqCLYZ8FvX9Ai-8oP-45" value="Employment&lt;div&gt;Type&lt;/div&gt;" style="ellipse;whiteSpace=wrap;html=1;align=center;" vertex="1" parent="1">
          <mxGeometry x="120" y="600" width="100" height="40" as="geometry" />
        </mxCell>
        <mxCell id="3s1FqCLYZ8FvX9Ai-8oP-46" value="" style="endArrow=none;html=1;rounded=0;" edge="1" parent="1" source="3s1FqCLYZ8FvX9Ai-8oP-45" target="3s1FqCLYZ8FvX9Ai-8oP-36">
          <mxGeometry relative="1" as="geometry">
            <mxPoint x="230" y="560" as="sourcePoint" />
            <mxPoint x="390" y="560" as="targetPoint" />
          </mxGeometry>
        </mxCell>
        <mxCell id="3s1FqCLYZ8FvX9Ai-8oP-47" value="POSITION" style="whiteSpace=wrap;html=1;align=center;" vertex="1" parent="1">
          <mxGeometry x="580" y="440" width="100" height="40" as="geometry" />
        </mxCell>
        <mxCell id="3s1FqCLYZ8FvX9Ai-8oP-48" value="PositionID" style="ellipse;whiteSpace=wrap;html=1;align=center;fontStyle=4;" vertex="1" parent="1">
          <mxGeometry x="740" y="360" width="100" height="40" as="geometry" />
        </mxCell>
        <mxCell id="3s1FqCLYZ8FvX9Ai-8oP-49" value="" style="endArrow=none;html=1;rounded=0;" edge="1" parent="1" source="3s1FqCLYZ8FvX9Ai-8oP-48" target="3s1FqCLYZ8FvX9Ai-8oP-47">
          <mxGeometry relative="1" as="geometry">
            <mxPoint x="350" y="620" as="sourcePoint" />
            <mxPoint x="510" y="620" as="targetPoint" />
          </mxGeometry>
        </mxCell>
        <mxCell id="3s1FqCLYZ8FvX9Ai-8oP-50" value="Title" style="ellipse;whiteSpace=wrap;html=1;align=center;" vertex="1" parent="1">
          <mxGeometry x="730" y="560" width="100" height="40" as="geometry" />
        </mxCell>
        <mxCell id="3s1FqCLYZ8FvX9Ai-8oP-51" value="" style="endArrow=none;html=1;rounded=0;" edge="1" parent="1" source="3s1FqCLYZ8FvX9Ai-8oP-47" target="3s1FqCLYZ8FvX9Ai-8oP-50">
          <mxGeometry relative="1" as="geometry">
            <mxPoint x="350" y="620" as="sourcePoint" />
            <mxPoint x="510" y="620" as="targetPoint" />
          </mxGeometry>
        </mxCell>
        <mxCell id="3s1FqCLYZ8FvX9Ai-8oP-52" value="POSITION HELD" style="whiteSpace=wrap;html=1;align=center;" vertex="1" parent="1">
          <mxGeometry x="510" y="770" width="100" height="40" as="geometry" />
        </mxCell>
        <mxCell id="3s1FqCLYZ8FvX9Ai-8oP-53" value="Position&lt;div&gt;HeldID&lt;/div&gt;" style="ellipse;whiteSpace=wrap;html=1;align=center;fontStyle=4;" vertex="1" parent="1">
          <mxGeometry x="500" y="890" width="100" height="40" as="geometry" />
        </mxCell>
        <mxCell id="3s1FqCLYZ8FvX9Ai-8oP-54" value="" style="endArrow=none;html=1;rounded=0;" edge="1" parent="1" source="3s1FqCLYZ8FvX9Ai-8oP-52" target="3s1FqCLYZ8FvX9Ai-8oP-53">
          <mxGeometry relative="1" as="geometry">
            <mxPoint x="550" y="550" as="sourcePoint" />
            <mxPoint x="710" y="550" as="targetPoint" />
          </mxGeometry>
        </mxCell>
        <mxCell id="3s1FqCLYZ8FvX9Ai-8oP-56" value="Start date" style="ellipse;whiteSpace=wrap;html=1;align=center;" vertex="1" parent="1">
          <mxGeometry x="730" y="800" width="100" height="40" as="geometry" />
        </mxCell>
        <mxCell id="3s1FqCLYZ8FvX9Ai-8oP-57" value="" style="endArrow=none;html=1;rounded=0;" edge="1" parent="1" source="3s1FqCLYZ8FvX9Ai-8oP-52" target="3s1FqCLYZ8FvX9Ai-8oP-56">
          <mxGeometry relative="1" as="geometry">
            <mxPoint x="550" y="550" as="sourcePoint" />
            <mxPoint x="710" y="550" as="targetPoint" />
          </mxGeometry>
        </mxCell>
        <mxCell id="3s1FqCLYZ8FvX9Ai-8oP-58" value="Termination Date" style="ellipse;whiteSpace=wrap;html=1;align=center;" vertex="1" parent="1">
          <mxGeometry x="730" y="880" width="100" height="40" as="geometry" />
        </mxCell>
        <mxCell id="3s1FqCLYZ8FvX9Ai-8oP-59" value="" style="endArrow=none;html=1;rounded=0;" edge="1" parent="1" source="3s1FqCLYZ8FvX9Ai-8oP-52" target="3s1FqCLYZ8FvX9Ai-8oP-58">
          <mxGeometry relative="1" as="geometry">
            <mxPoint x="550" y="550" as="sourcePoint" />
            <mxPoint x="710" y="550" as="targetPoint" />
          </mxGeometry>
        </mxCell>
        <mxCell id="3s1FqCLYZ8FvX9Ai-8oP-60" value="Salary" style="ellipse;whiteSpace=wrap;html=1;align=center;" vertex="1" parent="1">
          <mxGeometry x="620" y="920" width="100" height="40" as="geometry" />
        </mxCell>
        <mxCell id="3s1FqCLYZ8FvX9Ai-8oP-61" value="" style="endArrow=none;html=1;rounded=0;" edge="1" parent="1" source="3s1FqCLYZ8FvX9Ai-8oP-52" target="3s1FqCLYZ8FvX9Ai-8oP-60">
          <mxGeometry relative="1" as="geometry">
            <mxPoint x="550" y="550" as="sourcePoint" />
            <mxPoint x="710" y="550" as="targetPoint" />
          </mxGeometry>
        </mxCell>
        <mxCell id="3s1FqCLYZ8FvX9Ai-8oP-67" value="" style="endArrow=none;html=1;rounded=0;" edge="1" parent="1" source="3s1FqCLYZ8FvX9Ai-8oP-70" target="3s1FqCLYZ8FvX9Ai-8oP-2">
          <mxGeometry relative="1" as="geometry">
            <mxPoint x="210" y="330" as="sourcePoint" />
            <mxPoint x="370" y="330" as="targetPoint" />
          </mxGeometry>
        </mxCell>
        <mxCell id="3s1FqCLYZ8FvX9Ai-8oP-69" value="1" style="resizable=0;html=1;whiteSpace=wrap;align=right;verticalAlign=bottom;" connectable="0" vertex="1" parent="3s1FqCLYZ8FvX9Ai-8oP-67">
          <mxGeometry x="1" relative="1" as="geometry" />
        </mxCell>
        <mxCell id="3s1FqCLYZ8FvX9Ai-8oP-71" value="" style="endArrow=none;html=1;rounded=0;" edge="1" parent="1" source="3s1FqCLYZ8FvX9Ai-8oP-36" target="3s1FqCLYZ8FvX9Ai-8oP-70">
          <mxGeometry relative="1" as="geometry">
            <mxPoint x="252" y="480" as="sourcePoint" />
            <mxPoint x="288" y="160" as="targetPoint" />
          </mxGeometry>
        </mxCell>
        <mxCell id="3s1FqCLYZ8FvX9Ai-8oP-72" value="M" style="resizable=0;html=1;whiteSpace=wrap;align=left;verticalAlign=bottom;" connectable="0" vertex="1" parent="3s1FqCLYZ8FvX9Ai-8oP-71">
          <mxGeometry x="-1" relative="1" as="geometry" />
        </mxCell>
        <mxCell id="3s1FqCLYZ8FvX9Ai-8oP-70" value="Employs" style="shape=rhombus;perimeter=rhombusPerimeter;whiteSpace=wrap;html=1;align=center;" vertex="1" parent="1">
          <mxGeometry x="190" y="250" width="120" height="60" as="geometry" />
        </mxCell>
        <mxCell id="3s1FqCLYZ8FvX9Ai-8oP-74" value="" style="endArrow=none;html=1;rounded=0;" edge="1" parent="1" source="3s1FqCLYZ8FvX9Ai-8oP-77" target="3s1FqCLYZ8FvX9Ai-8oP-16">
          <mxGeometry relative="1" as="geometry">
            <mxPoint x="260" y="350" as="sourcePoint" />
            <mxPoint x="420" y="350" as="targetPoint" />
          </mxGeometry>
        </mxCell>
        <mxCell id="3s1FqCLYZ8FvX9Ai-8oP-76" value="1" style="resizable=0;html=1;whiteSpace=wrap;align=right;verticalAlign=bottom;" connectable="0" vertex="1" parent="3s1FqCLYZ8FvX9Ai-8oP-74">
          <mxGeometry x="1" relative="1" as="geometry" />
        </mxCell>
        <mxCell id="3s1FqCLYZ8FvX9Ai-8oP-78" value="" style="endArrow=none;html=1;rounded=0;" edge="1" parent="1" source="3s1FqCLYZ8FvX9Ai-8oP-36" target="3s1FqCLYZ8FvX9Ai-8oP-77">
          <mxGeometry relative="1" as="geometry">
            <mxPoint x="268" y="480" as="sourcePoint" />
            <mxPoint x="552" y="160" as="targetPoint" />
          </mxGeometry>
        </mxCell>
        <mxCell id="3s1FqCLYZ8FvX9Ai-8oP-79" value="M" style="resizable=0;html=1;whiteSpace=wrap;align=left;verticalAlign=bottom;" connectable="0" vertex="1" parent="3s1FqCLYZ8FvX9Ai-8oP-78">
          <mxGeometry x="-1" relative="1" as="geometry" />
        </mxCell>
        <mxCell id="3s1FqCLYZ8FvX9Ai-8oP-77" value="Employs" style="shape=rhombus;perimeter=rhombusPerimeter;whiteSpace=wrap;html=1;align=center;" vertex="1" parent="1">
          <mxGeometry x="410" y="260" width="120" height="60" as="geometry" />
        </mxCell>
        <mxCell id="3s1FqCLYZ8FvX9Ai-8oP-81" value="" style="endArrow=none;html=1;rounded=0;" edge="1" parent="1" source="3s1FqCLYZ8FvX9Ai-8oP-84" target="3s1FqCLYZ8FvX9Ai-8oP-36">
          <mxGeometry relative="1" as="geometry">
            <mxPoint x="340" y="350" as="sourcePoint" />
            <mxPoint x="500" y="350" as="targetPoint" />
          </mxGeometry>
        </mxCell>
        <mxCell id="3s1FqCLYZ8FvX9Ai-8oP-83" value="1" style="resizable=0;html=1;whiteSpace=wrap;align=right;verticalAlign=bottom;" connectable="0" vertex="1" parent="3s1FqCLYZ8FvX9Ai-8oP-81">
          <mxGeometry x="1" relative="1" as="geometry" />
        </mxCell>
        <mxCell id="3s1FqCLYZ8FvX9Ai-8oP-85" value="" style="endArrow=none;html=1;rounded=0;" edge="1" parent="1" source="3s1FqCLYZ8FvX9Ai-8oP-52" target="3s1FqCLYZ8FvX9Ai-8oP-84">
          <mxGeometry relative="1" as="geometry">
            <mxPoint x="520" y="500" as="sourcePoint" />
            <mxPoint x="300" y="500" as="targetPoint" />
          </mxGeometry>
        </mxCell>
        <mxCell id="3s1FqCLYZ8FvX9Ai-8oP-86" value="M" style="resizable=0;html=1;whiteSpace=wrap;align=left;verticalAlign=bottom;" connectable="0" vertex="1" parent="3s1FqCLYZ8FvX9Ai-8oP-85">
          <mxGeometry x="-1" relative="1" as="geometry" />
        </mxCell>
        <mxCell id="3s1FqCLYZ8FvX9Ai-8oP-84" value="Holds" style="shape=rhombus;perimeter=rhombusPerimeter;whiteSpace=wrap;html=1;align=center;" vertex="1" parent="1">
          <mxGeometry x="350" y="590" width="120" height="60" as="geometry" />
        </mxCell>
        <mxCell id="3s1FqCLYZ8FvX9Ai-8oP-88" value="" style="endArrow=none;html=1;rounded=0;" edge="1" parent="1" source="3s1FqCLYZ8FvX9Ai-8oP-91" target="3s1FqCLYZ8FvX9Ai-8oP-47">
          <mxGeometry relative="1" as="geometry">
            <mxPoint x="340" y="350" as="sourcePoint" />
            <mxPoint x="500" y="350" as="targetPoint" />
          </mxGeometry>
        </mxCell>
        <mxCell id="3s1FqCLYZ8FvX9Ai-8oP-90" value="1" style="resizable=0;html=1;whiteSpace=wrap;align=right;verticalAlign=bottom;" connectable="0" vertex="1" parent="3s1FqCLYZ8FvX9Ai-8oP-88">
          <mxGeometry x="1" relative="1" as="geometry" />
        </mxCell>
        <mxCell id="3s1FqCLYZ8FvX9Ai-8oP-92" value="" style="endArrow=none;html=1;rounded=0;" edge="1" parent="1" source="3s1FqCLYZ8FvX9Ai-8oP-52" target="3s1FqCLYZ8FvX9Ai-8oP-91">
          <mxGeometry relative="1" as="geometry">
            <mxPoint x="557" y="520" as="sourcePoint" />
            <mxPoint x="423" y="720" as="targetPoint" />
          </mxGeometry>
        </mxCell>
        <mxCell id="3s1FqCLYZ8FvX9Ai-8oP-93" value="M" style="resizable=0;html=1;whiteSpace=wrap;align=left;verticalAlign=bottom;" connectable="0" vertex="1" parent="3s1FqCLYZ8FvX9Ai-8oP-92">
          <mxGeometry x="-1" relative="1" as="geometry" />
        </mxCell>
        <mxCell id="3s1FqCLYZ8FvX9Ai-8oP-91" value="Holds" style="shape=rhombus;perimeter=rhombusPerimeter;whiteSpace=wrap;html=1;align=center;" vertex="1" parent="1">
          <mxGeometry x="580" y="620" width="120" height="60" as="geometry" />
        </mxCell>
        <mxCell id="3s1FqCLYZ8FvX9Ai-8oP-95" value="" style="endArrow=none;html=1;rounded=0;" edge="1" parent="1" source="3s1FqCLYZ8FvX9Ai-8oP-98" target="3s1FqCLYZ8FvX9Ai-8oP-16">
          <mxGeometry relative="1" as="geometry">
            <mxPoint x="560" y="430" as="sourcePoint" />
            <mxPoint x="700" y="340" as="targetPoint" />
            <Array as="points" />
          </mxGeometry>
        </mxCell>
        <mxCell id="3s1FqCLYZ8FvX9Ai-8oP-97" value="1" style="resizable=0;html=1;whiteSpace=wrap;align=right;verticalAlign=bottom;" connectable="0" vertex="1" parent="3s1FqCLYZ8FvX9Ai-8oP-95">
          <mxGeometry x="1" relative="1" as="geometry" />
        </mxCell>
        <mxCell id="3s1FqCLYZ8FvX9Ai-8oP-99" value="" style="endArrow=none;html=1;rounded=0;" edge="1" parent="1" source="3s1FqCLYZ8FvX9Ai-8oP-47" target="3s1FqCLYZ8FvX9Ai-8oP-98">
          <mxGeometry relative="1" as="geometry">
            <mxPoint x="625" y="440" as="sourcePoint" />
            <mxPoint x="565" y="200" as="targetPoint" />
            <Array as="points" />
          </mxGeometry>
        </mxCell>
        <mxCell id="3s1FqCLYZ8FvX9Ai-8oP-100" value="1" style="resizable=0;html=1;whiteSpace=wrap;align=left;verticalAlign=bottom;" connectable="0" vertex="1" parent="3s1FqCLYZ8FvX9Ai-8oP-99">
          <mxGeometry x="-1" relative="1" as="geometry" />
        </mxCell>
        <mxCell id="3s1FqCLYZ8FvX9Ai-8oP-98" value="Responsible" style="shape=rhombus;perimeter=rhombusPerimeter;whiteSpace=wrap;html=1;align=center;" vertex="1" parent="1">
          <mxGeometry x="570" y="300" width="120" height="60" as="geometry" />
        </mxCell>
        <mxCell id="3s1FqCLYZ8FvX9Ai-8oP-103" value="Permanent&lt;div&gt;Employment&lt;/div&gt;" style="rounded=1;arcSize=10;whiteSpace=wrap;html=1;align=center;" vertex="1" parent="1">
          <mxGeometry x="60" y="800" width="100" height="40" as="geometry" />
        </mxCell>
        <mxCell id="3s1FqCLYZ8FvX9Ai-8oP-104" value="" style="endArrow=none;html=1;rounded=0;" edge="1" parent="1" source="3s1FqCLYZ8FvX9Ai-8oP-102" target="3s1FqCLYZ8FvX9Ai-8oP-36">
          <mxGeometry relative="1" as="geometry">
            <mxPoint x="110" y="580" as="sourcePoint" />
            <mxPoint x="270" y="580" as="targetPoint" />
          </mxGeometry>
        </mxCell>
        <mxCell id="3s1FqCLYZ8FvX9Ai-8oP-105" value="" style="endArrow=none;html=1;rounded=0;" edge="1" parent="1" source="3s1FqCLYZ8FvX9Ai-8oP-103" target="3s1FqCLYZ8FvX9Ai-8oP-102">
          <mxGeometry relative="1" as="geometry">
            <mxPoint x="77" y="710" as="sourcePoint" />
            <mxPoint x="233" y="520" as="targetPoint" />
          </mxGeometry>
        </mxCell>
        <mxCell id="3s1FqCLYZ8FvX9Ai-8oP-106" value="Part Time&lt;div&gt;Employment&lt;/div&gt;" style="rounded=1;arcSize=10;whiteSpace=wrap;html=1;align=center;" vertex="1" parent="1">
          <mxGeometry x="220" y="840" width="100" height="40" as="geometry" />
        </mxCell>
        <mxCell id="3s1FqCLYZ8FvX9Ai-8oP-107" value="" style="endArrow=none;html=1;rounded=0;" edge="1" parent="1" source="3s1FqCLYZ8FvX9Ai-8oP-102" target="3s1FqCLYZ8FvX9Ai-8oP-36">
          <mxGeometry relative="1" as="geometry">
            <mxPoint x="110" y="580" as="sourcePoint" />
            <mxPoint x="270" y="580" as="targetPoint" />
          </mxGeometry>
        </mxCell>
        <mxCell id="3s1FqCLYZ8FvX9Ai-8oP-108" value="" style="endArrow=none;html=1;rounded=0;" edge="1" parent="1" source="3s1FqCLYZ8FvX9Ai-8oP-106" target="3s1FqCLYZ8FvX9Ai-8oP-102">
          <mxGeometry relative="1" as="geometry">
            <mxPoint x="241" y="740" as="sourcePoint" />
            <mxPoint x="249" y="520" as="targetPoint" />
          </mxGeometry>
        </mxCell>
        <mxCell id="3s1FqCLYZ8FvX9Ai-8oP-102" value="IS A" style="triangle;whiteSpace=wrap;html=1;direction=south;" vertex="1" parent="1">
          <mxGeometry x="230" y="680" width="80" height="60" as="geometry" />
        </mxCell>
      </root>
    </mxGraphModel>
  </diagram>
</mxfile>
